PathFileType	4	(X/Y/Z) shrug_0kg_1.trc																										
DataRate	CameraRate	NumFrames	NumMarkers	Units	OrigDataRate	OrigDataStartFrame	OrigNumFrames																					
100	100	24	9	mm	100	199	462																					
Frame#	Time	gu			centelbow			EpL			centpxt8			centijc7			ij			ts			aa			ai		
		X1	Y1	Z1	X2	Y2	Z2	X3	Y3	Z3	X4	Y4	Z4	X5	Y5	Z5	X6	Y6	Z6	X7	Y7	Z7	X8	Y8	Z8	X9	Y9	Z9
198	1.98	-68.562	40.625	163.117	-80.853	-198.126	225.015	-59.272	-189.331	247.293	-46.816	-153.158	-8.669	-46.816	31.938	-8.669	0	0	0	-132.296	54.895	46.144	-94.527	78.105	156.867	-155.364	-50.41	81.701
199	1.99	-69.803	37.55	164.53	-81.788	-201.889	223.773	-59.963	-193.382	245.925	-46.816	-153.158	-8.669	-46.816	31.938	-8.669	0	0	0	-132.802	54.557	45.889	-95.204	76.489	156.93	-156.271	-51.043	80.291
200	2	-71.237	34.154	165.752	-83.206	-205.881	222.535	-61.196	-197.649	244.607	-46.816	-153.158	-8.669	-46.816	31.938	-8.669	0	0	0	-133.52	53.832	46.05	-96.218	74.523	157.428	-157.432	-52.035	79.306
201	2.01	-72.355	31.501	166.27	-84.61	-208.957	221.171	-62.512	-200.944	243.237	-46.816	-153.158	-8.669	-46.816	31.938	-8.669	0	0	0	-134.345	53.241	46.148	-97.437	72.74	157.873	-158.628	-52.895	78.257
202	2.02	-72.947	29.814	166.31	-85.64	-210.92	219.89	-63.53	-203.068	242.002	-46.816	-153.158	-8.669	-46.816	31.938	-8.669	0	0	0	-135.029	53.041	45.815	-98.58	71.372	157.888	-159.614	-53.371	76.763
203	2.03	-73.304	28.776	166.198	-86.459	-212.158	218.752	-64.372	-204.433	240.932	-46.816	-153.158	-8.669	-46.816	31.938	-8.669	0	0	0	-135.222	52.829	45.332	-99.344	69.945	157.78	-160.182	-53.843	75.061
204	2.04	-73.879	28.116	165.937	-87.496	-212.983	217.609	-65.446	-205.369	239.864	-46.816	-153.158	-8.669	-46.816	31.938	-8.669	0	0	0	-134.772	52.135	45.175	-99.658	67.979	158.05	-160.28	-54.756	73.621
205	2.05	-74.762	27.123	165.832	-88.968	-214.074	216.886	-66.986	-206.549	239.237	-46.816	-153.158	-8.669	-46.816	31.938	-8.669	0	0	0	-134.208	50.829	45.479	-100.083	65.461	158.82	-160.371	-56.233	72.661
206	2.06	-75.804	24.835	166.494	-90.73	-216.368	217.314	-68.894	-208.888	239.824	-46.816	-153.158	-8.669	-46.816	31.938	-8.669	0	0	0	-134.351	49.1	46.022	-101.417	62.692	159.844	-161.096	-58.111	72.024
207	2.07	-77.117	21.349	167.598	-92.493	-219.814	218.473	-70.91	-212.304	241.215	-46.816	-153.158	-8.669	-46.816	31.938	-8.669	0	0	0	-135.424	47.527	46.311	-103.819	60.246	160.61	-162.452	-59.883	71.176
208	2.08	-78.96	18.085	167.837	-94.04	-223.062	218.875	-72.781	-215.433	241.881	-46.816	-153.158	-8.669	-46.816	31.938	-8.669	0	0	0	-136.785	46.726	45.94	-106.577	58.664	160.699	-163.694	-60.976	69.645
209	2.09	-81.196	16.426	166.774	-95.268	-224.75	217.962	-74.345	-216.947	241.216	-46.816	-153.158	-8.669	-46.816	31.938	-8.669	0	0	0	-137.375	46.759	45.288	-108.631	57.917	160.501	-163.947	-61.286	67.776
210	2.1	-83.197	16.397	165.395	-96.156	-224.83	216.639	-75.537	-216.865	240.108	-46.816	-153.158	-8.669	-46.816	31.938	-8.669	0	0	0	-136.529	47.234	45.289	-109.319	57.516	160.955	-162.9	-61.119	66.499
211	2.11	-84.319	16.845	164.568	-96.745	-224.438	215.681	-76.369	-216.389	239.334	-46.816	-153.158	-8.669	-46.816	31.938	-8.669	0	0	0	-134.686	47.652	46.279	-108.92	56.972	162.357	-161.196	-60.905	66.235
212	2.12	-84.575	16.908	164.31	-97.294	-224.457	214.962	-77.089	-216.439	238.772	-46.816	-153.158	-8.669	-46.816	31.938	-8.669	0	0	0	-133.094	47.622	47.667	-108.386	56.065	164.042	-160.016	-61.016	66.607
213	2.13	-84.551	16.697	164.405	-98.103	-224.797	214.216	-78.013	-216.902	238.163	-46.816	-153.158	-8.669	-46.816	31.938	-8.669	0	0	0	-132.623	47.187	48.789	-108.406	55.021	165.31	-160.003	-61.441	67.118
214	2.14	-84.598	16.411	164.736	-99.074	-225.241	213.509	-79.071	-217.501	237.579	-46.816	-153.158	-8.669	-46.816	31.938	-8.669	0	0	0	-133.134	46.742	49.528	-108.929	54.26	166.072	-160.807	-61.852	67.614
215	2.15	-84.592	15.879	165.206	-99.835	-225.919	213.015	-79.906	-218.317	237.19	-46.816	-153.158	-8.669	-46.816	31.938	-8.669	0	0	0	-133.894	46.487	49.993	-109.444	53.863	166.494	-161.64	-62.097	68.026
216	2.16	-84.371	15.182	165.799	-100.17	-226.722	212.884	-80.3	-219.222	237.14	-46.816	-153.158	-8.669	-46.816	31.938	-8.669	0	0	0	-134.316	46.274	50.196	-109.548	53.562	166.636	-162.008	-62.326	68.223
217	2.17	-84.072	14.668	166.539	-100.238	-227.303	213.154	-80.411	-219.869	237.466	-46.816	-153.158	-8.669	-46.816	31.938	-8.669	0	0	0	-134.384	45.955	50.227	-109.328	53.172	166.61	-161.998	-62.665	68.249
218	2.18	-83.996	14.423	167.375	-100.428	-227.59	213.679	-80.629	-220.201	238.027	-46.816	-153.158	-8.669	-46.816	31.938	-8.669	0	0	0	-134.407	45.66	50.247	-109.135	52.829	166.586	-161.954	-62.977	68.268
219	2.19	-84.172	14.278	168.195	-100.873	-227.763	214.257	-81.088	-220.416	238.629	-46.816	-153.158	-8.669	-46.816	31.938	-8.669	0	0	0	-134.562	45.547	50.274	-109.112	52.69	166.576	-162.027	-63.11	68.303
220	2.2	-84.376	14.077	168.848	-101.371	-227.982	214.708	-81.593	-220.676	239.098	-46.816	-153.158	-8.669	-46.816	31.938	-8.669	0	0	0	-134.914	45.397	50.286	-109.255	52.534	166.542	-162.246	-63.289	68.338
221	2.21	-84.475	13.877	169.206	-101.728	-228.199	214.881	-81.962	-220.928	239.292	-46.816	-153.158	-8.669	-46.816	31.938	-8.669	0	0	0	-135.506	44.839	50.395	-109.557	51.978	166.586	-162.606	-63.9	68.478
